# xmcd
#
# Track frame offsets:
#	150
#	20500
#	39107
#	64013
#	79027
#	94602
#	117850
#	134670
#	151489
#	180732
#	204273
#
# Disc length: 3298 seconds
#
# Revision: 0
# Processed by: cddbd v1.5.2PL0 Copyright (c) Steve Scherf et al.
# Submitted via: EasyCDDAExtractor 4.6.9.1
#
DISCID=860ce00b
DTITLE=High Rize Band
DYEAR=2002
DGENRE=Blues
TTITLE0=Put Myself In To You
TTITLE1=Love One Another
TTITLE2=I Want To Love You
TTITLE3=Don't Mean Much To Me
TTITLE4=Knew It Right From The Start
TTITLE5=All That's Left Are Ashes
TTITLE6=White Guy
TTITLE7=Not Gonna Let Me Down
TTITLE8=Loose Ends Of Leaving
TTITLE9=Better Than Being Bent
TTITLE10=Beethoven K.M.A.
EXTD=Released on June 11, 2002.\nUPC: 656613848029\nCatalog: HR 8480
EXTT0=
EXTT1=
EXTT2=
EXTT3=
EXTT4=
EXTT5=
EXTT6=
EXTT7=
EXTT8=
EXTT9=
EXTT10=
PLAYORDER=
